<svg width="103" height="104" viewBox="0 0 103 104" fill="none" xmlns="http://www.w3.org/2000/svg">
<path d="M51.2714 12.9244C50.7584 12.9244 50.2538 12.939 49.747 12.9556C69.523 13.7351 85.317 30.0871 85.317 50.1535C85.317 70.2199 68.7319 87.3826 48.2741 87.3826C27.8162 87.3826 12.0325 71.5107 11.258 51.6355C11.2374 52.1448 11.2271 52.6561 11.2271 53.1674C11.2271 75.3955 29.1552 93.4145 51.2734 93.4145C73.3917 93.4145 91.3198 75.3955 91.3198 53.1674C91.3198 30.9393 73.3876 12.9244 51.2714 12.9244Z" fill="#CF9F67"/>
<path d="M44.2858 60.1327L36.5382 46.3207L32.9764 39.9707L30.5415 44.2484L41.7664 63.712L44.2879 60.1327H44.2858Z" fill="url(#paint0_linear_102_884)"/>
<path d="M87.9413 25.9944V33.365C87.1297 33.6581 86.2851 33.9844 85.4137 34.3523C84.4002 34.7805 83.4464 35.2212 82.5586 35.6639C81.4956 36.1981 80.3873 36.8009 79.2481 37.4785C78.4283 37.9649 77.6496 38.4575 76.9142 38.9439C76.1581 39.451 75.3898 39.9894 74.6028 40.5672C73.7335 41.2032 72.9075 41.8393 72.1267 42.4629C70.9134 43.4439 69.698 44.425 68.4826 45.4082C67.8419 45.8946 67.1848 46.4183 66.5173 46.9754C65.6872 47.6696 64.9147 48.3597 64.1957 49.0332C62.6239 50.6129 61.0522 52.1926 59.4804 53.7723L55.4428 58.1165L50.8964 63.6163L47.0256 68.5134L43.2126 73.4479L40.8848 76.9482L43.9789 81.4483C44.7349 80.276 45.734 78.7649 46.9453 77.0334C48.791 74.3937 50.2804 72.4523 51.2321 71.2176C52.2251 69.9268 53.5599 68.1975 55.4242 65.988C56.9857 64.1339 58.3742 62.5937 59.4618 61.4151L62.968 57.734L64.9888 55.6721L67.5494 53.2256L69.6032 51.3591L71.6076 49.5445L73.8489 47.6073L76.5248 45.5287L79.8497 43.0739L82.8943 41.2157L86.2954 39.4074L89.6141 37.8152L91.8636 36.8653L93.9566 36.1399L94.0451 29.6776L94.2037 23.55C88.4399 25.8531 87.9413 25.9986 87.9413 25.9986V25.9944Z" fill="url(#paint1_linear_102_884)"/>
<path d="M36.5382 46.3207L44.2879 60.1328L46.7785 56.5639L38.7651 42.8911L36.5403 46.3228L36.5382 46.3207Z" fill="#DC2627"/>
<path d="M100.064 27.6136L94.0452 29.6777L93.9566 36.1399C93.2644 36.3561 92.3312 36.6741 91.2415 37.1106C91.0087 37.2041 90.1827 37.5388 88.5079 38.3307C87.5088 38.8025 86.0173 39.5155 84.0789 40.5693C82.6801 41.3321 81.7696 41.8268 80.5625 42.6021C79.4253 43.3338 78.5643 43.9864 76.8833 45.2606C75.3033 46.4579 74.1888 47.3017 72.7386 48.5281C72.3657 48.844 72.7077 48.5614 68.8802 52.0097C68.4764 52.3734 67.4217 53.3254 66.1878 54.5019C65.5615 55.1005 65.1804 55.4746 64.9868 55.6721C64.6304 56.0358 63.6952 57.0045 62.2717 58.4366C61.9998 58.7089 61.7773 58.9334 61.629 59.083C57.7954 63.1196 53.9061 67.6425 50.0951 72.7038C49.0012 74.1567 47.9506 75.6034 46.9474 77.0355L50.0559 81.7372C52.6103 78.1039 54.9031 75.1399 56.6994 72.9075C57.8324 71.5003 59.1776 69.8375 61.0934 67.7028C62.8732 65.7198 64.202 64.3875 66.3464 62.232C68.909 59.6588 70.5488 58.0084 72.9672 55.8425C74.4031 54.5538 76.3765 52.8473 78.8012 50.9351C81.2278 49.0228 82.7811 47.7985 85.1274 46.3352C86.7136 45.3458 88.0423 44.6287 90.2197 43.4585C91.9934 42.5024 93.1346 41.8892 94.6982 41.1721C96.1979 40.482 98.0395 39.7212 100.194 39C100.149 35.2045 100.108 31.4091 100.069 27.6157L100.064 27.6136Z" fill="#DC2627"/>
<path d="M44.2858 60.1327L36.5382 46.3207L32.9764 39.9707L30.5415 44.2484L41.7664 63.712L44.2879 60.1327H44.2858Z" fill="url(#paint2_linear_102_884)"/>
<path d="M87.9413 25.9944V33.365C87.1297 33.6581 86.2851 33.9844 85.4137 34.3523C84.4002 34.7805 83.4464 35.2212 82.5586 35.6639C81.4956 36.1981 80.3873 36.8009 79.2481 37.4785C78.4283 37.9649 77.6496 38.4575 76.9142 38.9439C76.1581 39.451 75.3898 39.9894 74.6028 40.5672C73.7335 41.2032 72.9075 41.8393 72.1267 42.4629C70.9134 43.4439 69.698 44.425 68.4826 45.4082C67.8419 45.8946 67.1848 46.4183 66.5173 46.9754C65.6872 47.6696 64.9147 48.3597 64.1957 49.0332C62.6239 50.6129 61.0522 52.1926 59.4804 53.7723L55.4428 58.1165L50.8964 63.6163L47.0256 68.5134L43.2126 73.4479L40.8848 76.9482L43.9789 81.4483C44.7349 80.276 45.734 78.7649 46.9453 77.0334C48.791 74.3937 50.2804 72.4523 51.2321 71.2176C52.2251 69.9268 53.5599 68.1975 55.4242 65.988C56.9857 64.1339 58.3742 62.5937 59.4618 61.4151L62.968 57.734L64.9888 55.6721L67.5494 53.2256L69.6032 51.3591L71.6076 49.5445L73.8489 47.6073L76.5248 45.5287L79.8497 43.0739L82.8943 41.2157L86.2954 39.4074L89.6141 37.8152L91.8636 36.8653L93.9566 36.1399L94.0451 29.6776L94.2037 23.55C88.4399 25.8531 87.9413 25.9986 87.9413 25.9986V25.9944Z" fill="url(#paint3_linear_102_884)"/>
<path d="M36.5382 46.3207L44.2879 60.1328L46.7785 56.5639L38.7651 42.8911L36.5403 46.3228L36.5382 46.3207Z" fill="#DC2627"/>
<path d="M100.064 27.6136L94.0452 29.6777L93.9566 36.1399C93.2644 36.3561 92.3312 36.6741 91.2415 37.1106C91.0087 37.2041 90.1827 37.5388 88.5079 38.3307C87.5088 38.8025 86.0173 39.5155 84.0789 40.5693C82.6801 41.3321 81.7696 41.8268 80.5625 42.6021C79.4253 43.3338 78.5643 43.9864 76.8833 45.2606C75.3033 46.4579 74.1888 47.3017 72.7386 48.5281C72.3657 48.844 72.7077 48.5614 68.8802 52.0097C68.4764 52.3734 67.4217 53.3254 66.1878 54.5019C65.5615 55.1005 65.1804 55.4746 64.9868 55.6721C64.6304 56.0358 63.6952 57.0045 62.2717 58.4366C61.9998 58.7089 61.7773 58.9334 61.629 59.083C57.7954 63.1196 53.9061 67.6425 50.0951 72.7038C49.0012 74.1567 47.9506 75.6034 46.9474 77.0355L50.0559 81.7372C52.6103 78.1039 54.9031 75.1399 56.6994 72.9075C57.8324 71.5003 59.1776 69.8375 61.0934 67.7028C62.8732 65.7198 64.202 64.3875 66.3464 62.232C68.909 59.6588 70.5488 58.0084 72.9672 55.8425C74.4031 54.5538 76.3765 52.8473 78.8012 50.9351C81.2278 49.0228 82.7811 47.7985 85.1274 46.3352C86.7136 45.3458 88.0423 44.6287 90.2197 43.4585C91.9934 42.5024 93.1346 41.8892 94.6982 41.1721C96.1979 40.482 98.0395 39.7212 100.194 39C100.149 35.2045 100.108 31.4091 100.069 27.6157L100.064 27.6136Z" fill="#DC2627"/>
<path d="M41.7645 63.712C44.6362 59.6567 46.8321 56.4931 48.338 54.3044C49.4133 52.7434 50.3053 51.4381 51.6958 49.636C52.9627 47.996 53.9865 46.7987 55.9826 44.4666C57.9747 42.1407 58.9676 40.9788 60.1974 39.6547C61.386 38.3722 63.1947 36.4413 65.7697 34.1258C67.5083 32.5627 68.9174 31.4382 69.8403 30.7024C70.9197 29.8418 72.1063 28.9023 73.7687 27.757C75.1571 26.8009 76.1995 26.1711 76.4693 26.0069C77.7424 25.2399 78.7415 24.7182 79.4831 24.3337C80.3627 23.8764 81.3433 23.3692 82.6988 22.7789C84.0707 22.1803 85.1213 21.8061 85.4139 21.7022C86.38 21.3613 87.2267 21.1036 87.9147 20.9124C87.9229 25.0612 87.9312 29.2079 87.9394 33.3588C86.3491 33.9304 84.526 34.6786 82.5587 35.6556C81.8871 35.9902 79.6541 37.121 76.9143 38.9355C75.1551 40.1037 73.8985 41.0765 72.1269 42.4545C70.7982 43.4897 69.8382 44.2795 68.4827 45.3999C66.3218 47.1791 65.2423 48.0708 64.1959 49.0249C62.7271 50.3614 61.625 51.5129 59.4805 53.764C58.2713 55.0319 56.9591 56.4079 55.4429 58.1082C54.6395 59.0082 53.111 60.7479 47.1535 68.3388C43.806 72.602 43.2003 73.4459 42.7966 74.0112C42.6812 74.1713 41.8346 75.4704 40.8828 76.942C39.6571 78.8356 38.2584 81.0139 38.0112 81.4421L19.9697 49.8542L26.9016 37.9358L30.3089 43.8493L41.7625 63.7099L41.7645 63.712Z" fill="#336FD2"/>
<path d="M14.5209 42.5107C15.7795 42.7477 16.1936 44.0156 15.7651 46.3166C15.6951 46.6886 15.5756 47.281 15.4046 48.1C15.0132 47.9545 14.0327 47.6198 12.4671 47.0981C11.4144 46.7635 10.5142 46.5161 9.7561 46.3561L9.91472 45.5018C9.94356 45.3521 9.98682 45.0882 10.0486 44.7057C10.1104 44.3253 10.1599 44.0343 10.1969 43.8348C10.3144 43.2112 10.5039 42.7331 10.7737 42.4006C11.0415 42.068 11.3691 41.9412 11.7625 42.016C12.0921 42.0784 12.3661 42.2551 12.5824 42.544C12.7987 42.8329 12.91 43.1759 12.9182 43.5708L12.9821 43.5874C13.0974 43.2507 13.2869 42.968 13.5527 42.7435C13.8205 42.5191 14.1439 42.4421 14.5209 42.5128V42.5107ZM11.8326 43.4502C11.3856 43.365 11.0972 43.6643 10.9674 44.344C10.9035 44.6849 10.8664 45.005 10.8561 45.3064C10.9756 45.3293 11.4803 45.4748 12.3682 45.7429C12.4053 45.5891 12.432 45.4415 12.4609 45.3022C12.6689 44.1861 12.4609 43.5708 11.8346 43.4523L11.8326 43.4502ZM14.3334 43.8618C13.8184 43.7662 13.46 44.2609 13.2581 45.3459C13.2169 45.5704 13.1819 45.7865 13.1592 45.9902C13.7628 46.1835 14.3211 46.3478 14.8319 46.4829C14.8814 46.3415 14.9308 46.1586 14.972 45.9383C15.0977 45.2607 15.11 44.7597 15.0029 44.4396C14.8958 44.1216 14.6733 43.9283 14.3314 43.8639L14.3334 43.8618Z" fill="#CF9F67"/>
<path d="M15.5674 35.2067C16.4367 35.533 17.0815 36.1483 17.4955 37.0545C17.9096 37.9608 17.9323 38.9107 17.5635 39.9063C17.2834 40.6608 16.8157 41.1971 16.1586 41.5089C15.5035 41.8248 14.8155 41.8456 14.0986 41.5754C13.219 41.247 12.5763 40.6275 12.1684 39.7192C11.7605 38.8109 11.7399 37.8631 12.1066 36.8737C12.3867 36.1192 12.8544 35.585 13.5094 35.2711C14.1625 34.9593 14.8505 34.9365 15.5694 35.2067H15.5674ZM15.1595 36.5536C14.6548 36.3644 14.1995 36.3603 13.7917 36.5328C13.3838 36.7095 13.0974 37.0171 12.9347 37.4515C12.7225 38.0273 12.7864 38.5802 13.1304 39.1019C13.4744 39.6278 13.9276 39.9957 14.4962 40.2077C15.0009 40.3968 15.4561 40.4051 15.8681 40.2305C16.276 40.0559 16.5644 39.7504 16.7272 39.3139C16.9393 38.7402 16.8734 38.1894 16.5232 37.6573C16.173 37.1314 15.7198 36.7635 15.1595 36.5515V36.5536Z" fill="#CF9F67"/>
<path d="M16.6839 28.2247C17.3163 28.7194 18.0435 29.2848 18.8633 29.9208C19.7759 30.6275 20.6267 31.2407 21.4219 31.7624L20.6803 33.022C20.0108 32.4504 19.2197 31.8123 18.3071 31.1077C17.6747 30.6151 17.1453 30.2201 16.723 29.9188L16.3234 30.5984C16.482 30.7834 16.6488 30.9913 16.8178 31.2262C16.9887 31.459 17.1597 31.7063 17.3266 31.9661C17.4976 32.228 17.6603 32.4982 17.8169 32.7768C17.9734 33.0553 18.1197 33.3359 18.2474 33.6227C18.3792 33.9075 18.4905 34.1902 18.5852 34.4666C18.68 34.7452 18.748 35.0112 18.7933 35.271C18.8345 35.5288 18.8489 35.7699 18.8304 35.9965C18.8139 36.2209 18.7583 36.4205 18.6676 36.593L17.7448 35.9383C17.7921 35.8177 17.7921 35.6431 17.7468 35.4186C17.7015 35.19 17.6232 34.9302 17.5099 34.635C17.3946 34.3399 17.2524 34.0218 17.0814 33.6872C16.9105 33.3505 16.7209 33.0117 16.5129 32.6728C16.3048 32.332 16.0885 32.0036 15.8578 31.6835C15.6291 31.3634 15.3964 31.0765 15.1636 30.8167L16.6839 28.2289V28.2247Z" fill="#CF9F67"/>
<path d="M20.6803 23.2321L21.3581 23.997C20.6453 24.7993 20.0232 25.5247 19.4938 26.1711C19.743 26.3998 20.2539 26.9049 21.0326 27.6864C21.8999 28.6031 22.5632 29.264 23.0184 29.6694L22.1182 30.771C21.8751 30.4862 21.2118 29.7587 20.1262 28.5823C19.2136 27.6178 18.505 26.9257 18.0044 26.5058L20.6803 23.23V23.2321Z" fill="#CF9F67"/>
<path d="M29.3962 23.2321L28.1994 24.3025C27.981 24.0552 27.5443 23.6893 26.8892 23.205L25.1629 24.7494C25.2391 25.0259 25.3112 25.2732 25.3813 25.4894C25.5399 26.009 25.6717 26.3353 25.7768 26.4705L24.65 27.4765C24.582 27.3871 24.3224 26.3229 23.8692 24.29C23.416 22.2572 23.14 21.166 23.0391 21.0225L24.4502 19.7609C24.6768 20.0165 25.4966 20.5902 26.9119 21.4819C28.3271 22.3736 29.1593 22.9577 29.4003 23.2321H29.3962ZM26.2053 22.6584C24.9075 21.7438 24.2133 21.2387 24.1226 21.1369L24.0629 21.1909C24.1226 21.2782 24.3822 22.1761 24.8416 23.8806L26.2032 22.6605L26.2053 22.6584Z" fill="#CF9F67"/>
<path d="M31.1925 15.1152L31.5818 16.0215C30.9947 16.3395 30.455 16.6575 29.9565 16.9714C30.0656 17.2271 30.3334 17.8091 30.7599 18.7174C31.2584 19.7837 31.7281 20.7024 32.171 21.4735L30.9391 22.253C30.7681 21.8415 30.3479 20.8936 29.6763 19.4033C29.3817 18.7797 29.1057 18.2019 28.842 17.676C28.4444 17.9296 27.9047 18.2975 27.2311 18.7839L26.85 17.8672L31.1925 15.1132V15.1152Z" fill="#CF9F67"/>
<path d="M36.4002 12.833L36.6413 13.8079C35.7143 14.1571 34.8779 14.4938 34.1281 14.8201C34.2352 15.1257 34.3856 15.5996 34.5895 16.2398C35.2281 15.9612 35.9079 15.6495 36.6268 15.3003L36.8905 16.2169C36.1716 16.4954 35.4856 16.7802 34.8285 17.0629C35.0015 17.6553 35.1746 18.204 35.3435 18.7174C36.184 18.3516 37.0739 17.938 38.0153 17.4724L38.2522 18.4534L34.3402 20.1516C34.2455 19.7401 33.9736 18.7403 33.5286 17.1419C33.2175 16.0797 32.9147 15.188 32.6243 14.4668L36.3982 12.8309L36.4002 12.833Z" fill="#CF9F67"/>
<path d="M43.2867 10.9956C43.3073 11.0746 43.0807 11.5631 42.609 12.4589C42.1393 13.3527 41.8344 13.891 41.6964 14.0677L41.7088 14.1342C41.9436 14.2839 42.4174 14.7391 43.1219 15.4978C43.8265 16.2564 44.1973 16.7033 44.2302 16.8384L42.5905 17.2438C42.5616 17.1253 42.3185 16.7823 41.8592 16.2107C41.3998 15.6391 41.0887 15.2795 40.928 15.134L40.8477 15.1527C40.722 15.3814 40.5325 15.8677 40.2771 16.6098C40.0216 17.356 39.9083 17.7863 39.9351 17.8985L38.3798 18.283C38.3613 18.1978 38.6147 17.6117 39.1503 16.5246C39.6859 15.4354 40.0319 14.789 40.1885 14.579L40.1782 14.5125C39.9887 14.3753 39.5849 13.997 38.969 13.3797C38.351 12.7603 38.0317 12.4007 38.007 12.303L39.5746 11.9143C39.5993 12.0203 39.8074 12.3113 40.1906 12.7832C40.5737 13.2592 40.8292 13.546 40.9548 13.6437L41.031 13.625C41.1402 13.4441 41.3112 13.0451 41.544 12.4215C41.7768 11.8 41.8818 11.4404 41.8592 11.3469L43.2929 10.9956H43.2867Z" fill="#CF9F67"/>
<path d="M63.722 85.0463L64.5522 90.4443L62.14 91.2279L59.5835 86.3911L61.2583 85.8465C61.9031 87.1976 62.4242 88.3491 62.8198 89.3011C62.587 88.2847 62.3933 87.3784 62.2409 86.5802L62.0473 85.5888L63.722 85.0442V85.0463Z" fill="white"/>
<path d="M69.2306 85.8881C69.4654 86.3745 69.6199 86.7278 69.6899 86.9419C69.76 87.1581 69.7641 87.3846 69.7023 87.6237C69.6405 87.8627 69.5087 88.0872 69.3068 88.2971C69.1049 88.5071 68.8433 88.692 68.5178 88.8521C68.2088 89.0038 67.9122 89.0974 67.6258 89.1348C67.3395 89.1701 67.0799 89.141 66.8492 89.0454C66.6185 88.9498 66.4393 88.8084 66.3136 88.6235C66.1879 88.4385 66.0046 88.0955 65.7636 87.5966L65.3619 86.7673C65.127 86.2809 64.9725 85.9296 64.9025 85.7135C64.8325 85.4973 64.8283 85.2707 64.8901 85.0317C64.9519 84.7927 65.0838 84.5682 65.2857 84.3583C65.4875 84.1483 65.7492 83.9633 66.0746 83.8033C66.3836 83.6515 66.6803 83.558 66.9666 83.5206C67.253 83.4853 67.5125 83.5144 67.7432 83.61C67.974 83.7056 68.1532 83.8469 68.2788 84.0319C68.4045 84.2169 68.5878 84.5599 68.8289 85.0587L69.2306 85.8881ZM66.9604 85.0338C66.8513 84.8093 66.7668 84.6721 66.7071 84.6222C66.6473 84.5744 66.5711 84.5723 66.4784 84.6181C66.4001 84.6576 66.3527 84.7116 66.3363 84.7823C66.3198 84.853 66.3713 85.0151 66.4928 85.2645L67.5867 87.5281C67.7226 87.8087 67.8195 87.977 67.8792 88.029C67.9389 88.081 68.0172 88.083 68.1182 88.0331C68.2212 87.9833 68.2665 87.9126 68.2582 87.8232C68.25 87.7338 68.1779 87.5468 68.0399 87.2599L66.9625 85.0317L66.9604 85.0338Z" fill="white"/>
<path d="M70.2255 81.5168L72.5678 85.1273L73.4165 84.5661L74.0015 85.4682L71.7561 86.9502L68.8289 82.4376L70.2235 81.5148L70.2255 81.5168Z" fill="white"/>
<path d="M75.9461 79.5007L74.673 80.5877L74.3599 80.2136C74.1621 79.9787 74.0262 79.8415 73.952 79.802C73.8778 79.7626 73.7954 79.7833 73.7048 79.8602C73.6265 79.9268 73.5936 79.9995 73.608 80.0743C73.6224 80.1492 73.7172 80.2926 73.8943 80.5025L75.5526 82.4792C75.7071 82.6642 75.8245 82.7744 75.9008 82.8076C75.979 82.843 76.0594 82.8222 76.1438 82.7515C76.2365 82.6725 76.2716 82.5852 76.2489 82.4917C76.2262 82.3982 76.1356 82.2547 75.9749 82.0635L75.565 81.5751L75.3075 81.7954L74.7822 81.1697L76.2736 79.8977L78.1276 82.1072L77.3283 82.791L76.9637 82.5956C76.9843 82.7973 76.9534 82.9864 76.8751 83.1631C76.7969 83.3398 76.6671 83.504 76.4879 83.6578C76.2736 83.8407 76.0367 83.9675 75.7772 84.0402C75.5176 84.113 75.2848 84.1255 75.0788 84.0797C74.8749 84.034 74.6998 83.9508 74.5576 83.8282C74.4155 83.7077 74.2239 83.506 73.987 83.2213L72.9611 81.997C72.6315 81.6042 72.4173 81.2965 72.3184 81.0762C72.2195 80.8559 72.2278 80.569 72.3411 80.2157C72.4564 79.8623 72.7016 79.5256 73.0806 79.2013C73.4535 78.8833 73.8181 78.6838 74.1704 78.6027C74.5226 78.5217 74.8131 78.5383 75.0356 78.6505C75.258 78.7649 75.5114 78.9893 75.7957 79.3261L75.944 79.5048L75.9461 79.5007Z" fill="white"/>
<path d="M77.4025 75.0006L82.0251 77.8773L80.89 79.1598L80.1134 78.582L79.7158 79.0309L80.3647 79.7522L79.2153 81.0492L75.7957 76.8152L77.4025 75.0006ZM79.3759 77.9771C78.8692 77.6341 78.2532 77.1935 77.5322 76.6593C78.1832 77.4762 78.6694 78.0582 78.9928 78.4095L79.3759 77.9771Z" fill="white"/>
<path d="M80.1773 71.1864L81.0528 71.8058L80.4843 72.6248L83.9842 75.1024L83.0263 76.4805L79.5264 74.0028L78.9599 74.8176L78.0844 74.1982L80.1773 71.1864Z" fill="white"/>
<path d="M80.6326 70.3862L81.9468 67.9127L82.8903 68.422L82.365 69.4114L83.2591 69.8936L83.7514 68.9665L84.6475 69.4509L84.1552 70.3779L85.1913 70.9391L85.7702 69.8499L86.7137 70.3592L85.3479 72.9324L80.6346 70.3841L80.6326 70.3862Z" fill="white"/>
<path d="M85.9886 64.0611L85.3994 65.6367L84.5301 65.3062C84.2767 65.2106 84.114 65.1669 84.0378 65.1773C83.9615 65.1877 83.9039 65.2501 83.8606 65.3644C83.8112 65.4933 83.8194 65.5909 83.8833 65.6554C83.9471 65.7198 84.1037 65.7988 84.3571 65.8965L86.6807 66.782C86.9238 66.8755 87.0886 66.9171 87.1772 66.9108C87.2637 66.9046 87.3317 66.8402 87.377 66.7175C87.4203 66.6011 87.412 66.5097 87.3523 66.4452C87.2926 66.3808 87.1236 66.2956 86.8497 66.1917L86.2214 65.9526L86.8105 64.3771L87.0062 64.4519C87.5233 64.6494 87.8735 64.8323 88.0589 65.0048C88.2422 65.1752 88.3596 65.4434 88.4091 65.8092C88.4585 66.175 88.4008 66.5783 88.234 67.0231C88.0609 67.4845 87.8508 67.8379 87.5995 68.0852C87.3482 68.3326 87.0845 68.4573 86.8043 68.4614C86.5242 68.4656 86.139 68.3741 85.6487 68.1871L84.1881 67.63C83.8276 67.4928 83.564 67.3744 83.393 67.2767C83.2241 67.179 83.084 67.0231 82.9727 66.8111C82.8615 66.599 82.8079 66.3434 82.81 66.0441C82.8121 65.7448 82.878 65.4247 83.0057 65.0817C83.1787 64.6182 83.3971 64.2627 83.6567 64.0175C83.9162 63.7722 84.1758 63.6433 84.4333 63.6329C84.6908 63.6226 85.0513 63.7057 85.5189 63.8844L85.9948 64.0653L85.9886 64.0611Z" fill="white"/>
<path d="M84.9236 58.4095L90.1477 59.5548L89.7934 61.199L87.5995 60.7188L87.4944 61.2114L89.6883 61.6916L89.334 63.3357L84.1099 62.1904L84.4642 60.5463L86.3326 60.9558L86.4377 60.4632L84.5692 60.0537L84.9236 58.4095Z" fill="white"/>
<defs>
<linearGradient id="paint0_linear_102_884" x1="30.5415" y1="51.8434" x2="44.2858" y2="51.8434" gradientUnits="userSpaceOnUse">
<stop stop-color="white"/>
<stop offset="0.86" stop-color="white"/>
<stop offset="1" stop-color="white"/>
</linearGradient>
<linearGradient id="paint1_linear_102_884" x1="40.8868" y1="52.4961" x2="94.2058" y2="52.4961" gradientUnits="userSpaceOnUse">
<stop stop-color="white"/>
<stop offset="0.86" stop-color="white"/>
<stop offset="1" stop-color="white"/>
</linearGradient>
<linearGradient id="paint2_linear_102_884" x1="30.5415" y1="51.8434" x2="44.2858" y2="51.8434" gradientUnits="userSpaceOnUse">
<stop stop-color="white"/>
<stop offset="0.86" stop-color="white"/>
<stop offset="1" stop-color="white"/>
</linearGradient>
<linearGradient id="paint3_linear_102_884" x1="40.8868" y1="52.4961" x2="94.2058" y2="52.4961" gradientUnits="userSpaceOnUse">
<stop stop-color="white"/>
<stop offset="0.86" stop-color="white"/>
<stop offset="1" stop-color="white"/>
</linearGradient>
</defs>
</svg>
