<svg width="360" height="422" viewBox="0 0 360 422" fill="none" xmlns="http://www.w3.org/2000/svg">
<g opacity="0.4">
<path d="M101.982 340.943L34.3483 221.098L3.25582 166L-18 203.117L79.9889 372L102 340.943H101.982Z" fill="url(#paint0_linear_102_878)"/>
<path d="M484.268 45.1515V108.93C477.174 111.466 469.792 114.29 462.177 117.473C453.319 121.178 444.983 124.991 437.223 128.822C427.933 133.445 418.247 138.661 408.29 144.524C401.125 148.733 394.319 152.996 387.892 157.204C381.284 161.593 374.569 166.251 367.691 171.251C360.093 176.755 352.874 182.259 346.05 187.655C335.446 196.144 324.823 204.633 314.201 213.141C308.602 217.35 302.858 221.882 297.025 226.702C289.769 232.71 283.018 238.681 276.734 244.508C262.997 258.178 249.26 271.847 235.523 285.516L200.235 323.107L160.5 370.698L126.67 413.073L93.3446 455.772L73 486.06L100.042 525C106.65 514.856 115.382 501.78 125.968 486.798C142.1 463.956 155.117 447.157 163.435 436.473C172.113 425.304 183.779 410.339 200.073 391.22C213.72 375.177 225.855 361.849 235.361 351.651L266.004 319.798L283.666 301.956L306.045 280.786L323.995 264.635L341.513 248.933L361.102 232.17L384.489 214.184L413.547 192.942L440.158 176.863L469.882 161.215L498.887 147.438L518.547 139.218L536.84 132.941L537.614 77.0227L539 24C488.625 43.9285 484.268 45.1875 484.268 45.1875V45.1515Z" fill="url(#paint1_linear_102_878)"/>
<path opacity="0.5" d="M35 220.837L101.597 341L123 309.951L54.1366 191L35.0177 220.855L35 220.837Z" fill="#DC2627"/>
<path opacity="0.5" d="M590.864 59L538.185 76.8854L537.41 132.883C531.352 134.756 523.185 137.512 513.648 141.294C511.611 142.105 504.382 145.005 489.724 151.867C480.981 155.956 467.928 162.134 450.963 171.265C438.722 177.876 430.753 182.162 420.189 188.881C410.237 195.221 402.701 200.876 387.99 211.917C374.162 222.292 364.409 229.604 351.717 240.231C348.453 242.969 351.446 240.519 317.949 270.4C314.416 273.552 305.185 281.802 294.386 291.996C288.905 297.183 285.57 300.425 283.875 302.136C280.756 305.288 272.572 313.682 260.114 326.092C257.734 328.451 255.787 330.396 254.489 331.693C220.938 366.672 186.9 405.864 153.548 449.722C143.974 462.312 134.78 474.848 126 487.258L153.205 528C175.56 496.516 195.626 470.832 211.347 451.487C221.262 439.294 233.035 424.884 249.802 406.387C265.378 389.204 277.007 377.658 295.774 358.981C318.202 336.682 332.552 322.381 353.718 303.613C366.283 292.446 383.555 277.659 404.774 261.088C426.012 244.518 439.605 233.909 460.14 221.229C474.022 212.656 485.65 206.442 504.706 196.301C520.229 188.016 530.216 182.703 543.9 176.489C557.025 170.509 573.142 163.917 592 157.667C591.603 124.778 591.243 91.8889 590.9 59.018L590.864 59Z" fill="#DC2627"/>
<path opacity="0.5" d="M80.1102 371.219C105.29 336.046 124.546 308.607 137.75 289.623C147.179 276.084 155.001 264.763 167.194 249.132C178.302 234.908 187.28 224.524 204.783 204.296C222.251 184.122 230.957 174.044 241.741 162.561C252.164 151.437 268.023 134.689 290.602 114.605C305.848 101.048 318.203 91.2949 326.295 84.913C335.761 77.4493 346.165 69.3005 360.742 59.3669C372.917 51.074 382.057 45.6114 384.423 44.1872C395.586 37.5348 404.347 33.0097 410.85 29.6745C418.563 25.7082 427.161 21.3094 439.047 16.1893C451.077 10.9972 460.289 7.75214 462.854 6.85073C471.326 3.8941 478.75 1.6586 484.783 0C484.855 35.9843 484.928 71.9507 485 107.953C471.055 112.911 455.069 119.401 437.819 127.874C431.93 130.777 412.349 140.584 388.325 156.323C372.899 166.455 361.88 174.892 346.346 186.845C334.695 195.823 326.277 202.673 314.392 212.391C295.443 227.823 285.978 235.557 276.802 243.832C263.923 255.424 254.259 265.412 235.455 284.936C224.852 295.933 213.345 307.868 200.051 322.615C193.006 330.421 179.603 345.511 127.364 411.35C98.0109 448.326 92.7003 455.645 89.1599 460.549C88.1483 461.937 80.7243 473.205 72.3791 485.969C61.6314 502.393 49.3664 521.286 47.1988 525L-111 251.025L-50.2169 147.651L-20.3401 198.941L80.0921 371.201L80.1102 371.219Z" fill="#336FD2"/>
</g>
<defs>
<linearGradient id="paint0_linear_102_878" x1="-18" y1="269.018" x2="101.982" y2="269.018" gradientUnits="userSpaceOnUse">
<stop stop-color="white"/>
<stop offset="0.86" stop-color="white"/>
<stop offset="1" stop-color="white"/>
</linearGradient>
<linearGradient id="paint1_linear_102_878" x1="73.018" y1="274.473" x2="539.018" y2="274.473" gradientUnits="userSpaceOnUse">
<stop stop-color="white"/>
<stop offset="0.86" stop-color="white"/>
<stop offset="1" stop-color="white"/>
</linearGradient>
</defs>
</svg>
